<svg width="53" height="66" viewBox="0 0 53 66" fill="none" xmlns="http://www.w3.org/2000/svg">
<path d="M42.5575 32.5906V10.1566H10.2163V52.5797H0V0H52.5265V32.5906" fill="#0048FF"/>
<path d="M29.711 65.6864L8.02344 51.1164V7.61133L29.5494 22.5912L29.711 65.6864Z" fill="#0048FF"/>
<path d="M42.5575 32.5906V10.1566H10.2163V52.5797H0V0H52.5265V32.5906" fill="#0048FF"/>
<path d="M42.556 52.5801H10.2148L29.7108 65.6869L42.556 52.5801Z" fill="#F4BF1B"/>
<path d="M52.526 47.5801H47.5391V52.5797H52.526V47.5801Z" fill="#0048FF"/>
<path d="M47.5416 42.585H42.5547V47.5846H47.5416V42.585Z" fill="#0048FF"/>
<path d="M47.5416 32.5908H42.5547V37.5905H47.5416V32.5908Z" fill="#0048FF"/>
<path d="M52.526 37.5859H47.5391V42.5856H52.526V37.5859Z" fill="#0048FF"/>
<path d="M29.711 65.6864L8.02344 51.1164V7.61133L29.5494 22.5912L29.711 65.6864Z" fill="#0048FF"/>
</svg>
